<?xml version="1.0" encoding="utf-8"?>
<!-- Generator: Adobe Illustrator 25.2.3, SVG Export Plug-In . SVG Version: 6.00 Build 0)  -->
<svg version="1.1" id="Layer_1" xmlns="http://www.w3.org/2000/svg" xmlns:xlink="http://www.w3.org/1999/xlink" x="0px" y="0px"
	 viewBox="0 0 100 100" style="enable-background:new 0 0 100 100;" xml:space="preserve">
<style type="text/css">
	.st0{fill:#A42015;}
</style>
<g>
	<path class="st0" d="M0.8-0.1c6.4,4,7.8,3.4,8,1L9.6,1c-0.1,2.7,3,3.8,3.8,0l0.8,0.2c-0.1,3,3.8,7.2,1.1,8.8
		c-1.9,1.1-5.1-1.1-7-2.4L7.9,7.8c1.2,1.9,3.6,5.9,2.4,7c-2.2,2-5.4-1.1-8.8-1.1l-0.2-0.8c3.9-0.8,2.8-3.9,0-3.8L1.3,8.4
		c2.4-0.2,3-1.6-0.9-8L0.8-0.1z M12.1,15l-0.3-0.3c0-1.4-0.4-3-1.4-4.5l0.3-0.3c1.4,0.9,2.9,1.5,4.4,1.5l0.3,0.4
		c-0.2,1.3,0,2.5,0.4,3.3l-0.3,0.2C14.7,15.1,13.4,14.9,12.1,15z"/>
	<path class="st0" d="M16.7,7.5c3.2,0.8,4.8-0.4,3-1.6l0.4-0.6c1.8,1.2,3.2,1,4.6-5.8h0.6c1.4,6.7,2.8,6.9,4.6,5.8l0.4,0.6
		c-1.9,1.2-0.4,3,3,1.6v0.7c-2.3,1.9-2,7-5.1,7c-2.1,0-2.7-3.9-3.1-6.6h-0.2c-0.4,2.8-1,6.6-3.1,6.6c-3.1,0-3.2-5.9-5.1-7.1V7.5z
		 M17.5,2.7V2c1-0.1,1.7-0.9,1.8-1.7h0.6C20,1.1,20.7,1.9,21.7,2v0.7c-0.9,0.1-1.7,0.9-1.8,1.8h-0.6C19.2,3.6,18.5,2.8,17.5,2.7z
		 M23.3,15.9c0.7-1,1.2-1.9,1.5-2.9h0.3c0.3,1,0.8,2,1.5,2.9v0.4h-3.4V15.9z M28.4,2c1-0.1,1.7-0.9,1.8-1.7h0.6
		c0.1,0.8,0.8,1.6,1.8,1.7v0.7c-0.9,0.1-1.7,0.9-1.8,1.8h-0.6c-0.1-0.8-0.8-1.6-1.8-1.8V2z"/>
	<path class="st0" d="M33.3,7.5c3.2,0.8,4.8-0.4,3-1.6l0.4-0.6c1.8,1.2,3.2,1,4.6-5.8H42c1.4,6.7,2.8,6.9,4.6,5.8L47,5.9
		c-1.9,1.2-0.4,3,3,1.6v0.7c-2.3,1.9-2,7-5.1,7c-2.1,0-2.7-3.9-3.1-6.6h-0.2c-0.4,2.8-1,6.6-3.1,6.6c-3.1,0-3.2-5.9-5.1-7.1V7.5z
		 M34.2,2.7V2c1-0.1,1.7-0.9,1.8-1.7h0.6c0.1,0.8,0.9,1.6,1.8,1.7v0.7c-0.9,0.1-1.7,0.9-1.8,1.8H36C35.9,3.6,35.2,2.8,34.2,2.7z
		 M40,15.9c0.7-1,1.2-1.9,1.5-2.9h0.3c0.3,1,0.8,2,1.5,2.9v0.4H40V15.9z M45,2c1-0.1,1.7-0.9,1.8-1.7h0.6c0.1,0.8,0.8,1.6,1.8,1.7
		v0.7c-0.9,0.1-1.7,0.9-1.8,1.8h-0.6C46.7,3.6,46,2.8,45,2.7V2z"/>
	<path class="st0" d="M50,7.5c3.2,0.8,4.8-0.4,3-1.6l0.4-0.6c1.8,1.2,3.2,1,4.6-5.8h0.6c1.4,6.7,2.8,6.9,4.6,5.8l0.4,0.6
		c-1.9,1.2-0.4,3,3,1.6v0.7c-2.3,1.9-2,7-5.1,7c-2.1,0-2.7-3.9-3.1-6.6h-0.2c-0.4,2.8-1,6.6-3.1,6.6c-3.1,0-3.2-5.9-5.1-7.1V7.5z
		 M50.9,2.7V2c1-0.1,1.7-0.9,1.8-1.7h0.6C53.4,1.1,54.1,1.9,55,2v0.7c-0.9,0.1-1.7,0.9-1.8,1.8h-0.6C52.5,3.6,51.8,2.8,50.9,2.7z
		 M56.6,15.9c0.7-1,1.2-1.9,1.5-2.9h0.3c0.3,1,0.8,2,1.5,2.9v0.4h-3.4V15.9z M61.7,2c1-0.1,1.7-0.9,1.8-1.7h0.6
		c0.1,0.8,0.8,1.6,1.8,1.7v0.7c-1,0.1-1.7,0.9-1.8,1.8h-0.6c-0.1-0.8-0.8-1.6-1.8-1.8V2z"/>
	<path class="st0" d="M66.7,7.5c3.2,0.8,4.8-0.4,3-1.6l0.4-0.6c1.8,1.2,3.2,1,4.6-5.8h0.6c1.4,6.7,2.8,6.9,4.6,5.8l0.4,0.6
		c-1.9,1.2-0.4,3,3,1.6v0.7c-2.3,1.9-2,7-5.1,7c-2.1,0-2.7-3.9-3.1-6.6h-0.2c-0.4,2.8-1,6.6-3.1,6.6c-3.1,0-3.2-5.9-5.1-7.1V7.5z
		 M67.5,2.7V2c1-0.1,1.7-0.9,1.8-1.7h0.6C70,1.1,70.7,1.9,71.7,2v0.7c-1,0.1-1.7,0.9-1.8,1.8h-0.6C69.2,3.6,68.5,2.8,67.5,2.7z
		 M73.3,15.9c0.7-1,1.2-1.9,1.5-2.9h0.3c0.3,1,0.8,2,1.5,2.9v0.4h-3.4V15.9z M78.4,2c1-0.1,1.7-0.9,1.8-1.7h0.6
		c0.1,0.8,0.8,1.6,1.8,1.7v0.7c-1,0.1-1.7,0.9-1.8,1.8h-0.6c-0.1-0.8-0.8-1.6-1.8-1.8V2z"/>
	<path class="st0" d="M85.9,1.1l0.7-0.2c0.8,3.9,3.9,2.8,3.8,0l0.8-0.1c0.2,2.4,1.6,3,8-0.9l0.4,0.4c-4,6.4-3.4,7.8-1,8l-0.1,0.8
		c-2.7-0.1-3.8,3,0,3.8l-0.2,0.8c-3-0.1-7.2,3.8-8.8,1.1c-1.1-1.9,1.1-5.1,2.4-7l-0.2-0.2c-1.9,1.2-5.9,3.6-7,2.4
		C82.8,7.6,85.9,4.4,85.9,1.1z M84.5,11.6l0.3-0.3c1.4,0,3-0.4,4.5-1.4l0.3,0.3c-0.9,1.4-1.5,2.9-1.5,4.4L87.8,15
		c-1.3-0.2-2.5,0-3.3,0.4l-0.2-0.3C84.5,14.3,84.6,13,84.5,11.6z"/>
	<path class="st0" d="M0,24.2c6.7-1.4,6.9-2.8,5.8-4.6l0.6-0.4c1.2,1.9,3,0.4,1.6-3h0.7c1.9,2.3,7,2,7,5.1c0,2.1-3.9,2.7-6.6,3.1
		v0.2c2.7,0.4,6.6,1,6.6,3.1c0,3.1-5.9,3.2-7.1,5.1H8c0.8-3.2-0.4-4.8-1.6-3l-0.6-0.4c1.2-1.8,1-3.2-5.8-4.6V24.2z M0.7,18.8
		C1.5,18.7,2.3,18,2.5,17h0.6c0.2,1,0.9,1.7,1.8,1.8v0.6c-0.9,0.1-1.6,0.8-1.8,1.8H2.5c-0.1-1-0.9-1.7-1.8-1.8V18.8z M3.1,32H2.5
		c-0.1-1-0.9-1.7-1.8-1.8v-0.6c0.8-0.1,1.6-0.8,1.8-1.8h0.6c0.2,0.9,0.9,1.7,1.8,1.8v0.6C4,30.3,3.3,31,3.1,32z M13.4,24.4
		c1-0.3,1.9-0.8,2.9-1.5h0.4v3.4h-0.4c-1-0.7-1.9-1.2-2.9-1.5V24.4z"/>
	<path class="st0" d="M16.7,24.2c4.3,0,5.1,2.5,7.3,1l0.3,0.3c-1.5,2.1,1.1,2.9,1.1,7.3L24.7,33c0-2.8-1-5.2-3.8-3.8L20.5,29
		c1.5-2.9-1.4-4.1-4-4.1L16.7,24.2z M26,23.9l-0.3-0.3c1.5-2.1-1.1-2.9-1.1-7.3l0.7-0.2c0,2.8,1,5.2,3.8,3.8l0.3,0.3
		c-1.5,2.9,1.4,4.1,4,4.1l-0.2,0.7C29.2,24.9,28.2,22.3,26,23.9z"/>
	<path class="st0" d="M33.3,24.2c2.3-1.9,2-7,5.1-7c2.1,0,2.7,3.9,3.1,6.6h0.2c0.4-2.8,1-6.6,3.1-6.6c3.1,0,3.2,5.9,5.1,7.1v0.7
		c-3.2-0.8-4.8,0.4-3,1.6l-0.4,0.6c-1.8-1.2-3.2-1-4.6,5.8h-0.6c-1.4-6.7-2.8-6.9-4.6-5.8l-0.4-0.6c1.9-1.2,0.4-3-3-1.6V24.2z
		 M34.1,29.8c0.9-0.2,1.7-0.9,1.8-1.8h0.6c0.1,0.9,0.8,1.6,1.8,1.8v0.6c-1,0.1-1.7,0.9-1.8,1.8h-0.6c-0.1-0.8-0.9-1.6-1.8-1.8V29.8z
		 M40,16.2h3.4v0.3c-0.7,1-1.2,2-1.5,2.9h-0.3c-0.3-1-0.8-1.9-1.5-2.9V16.2z M49.1,29.8v0.6c-1,0.1-1.7,0.9-1.8,1.8h-0.6
		c-0.1-0.8-0.9-1.6-1.8-1.8v-0.6c0.9-0.2,1.7-0.9,1.8-1.8h0.6C47.4,28.8,48.2,29.6,49.1,29.8z"/>
	<path class="st0" d="M50,24.2c2.3-1.9,2-7,5.1-7c2.1,0,2.7,3.9,3.1,6.6h0.2c0.4-2.8,1-6.6,3.1-6.6c3.1,0,3.2,5.9,5.1,7.1v0.7
		c-3.2-0.8-4.8,0.4-3,1.6l-0.4,0.6c-1.8-1.2-3.2-1-4.6,5.8H58c-1.4-6.7-2.8-6.9-4.6-5.8L53,26.5c1.9-1.2,0.4-3-3-1.6V24.2z
		 M50.8,29.8c1-0.2,1.7-0.9,1.8-1.8h0.6c0.1,0.9,0.8,1.6,1.8,1.8v0.6c-1,0.1-1.7,0.9-1.8,1.8h-0.6c-0.1-0.8-0.8-1.6-1.8-1.8V29.8z
		 M56.6,16.2H60v0.3c-0.7,1-1.2,2-1.5,2.9h-0.3c-0.3-1-0.8-1.9-1.5-2.9V16.2z M65.8,29.8v0.6c-1,0.1-1.7,0.9-1.8,1.8h-0.6
		c-0.1-0.8-0.8-1.6-1.8-1.8v-0.6c1-0.2,1.7-0.9,1.8-1.8H64C64.1,28.8,64.8,29.6,65.8,29.8z"/>
	<path class="st0" d="M70.3,20.4l0.3-0.3c2.9,1.5,4.1-1.4,4.1-4l0.7,0.2c0,4.3-2.5,5.1-1,7.3L74,23.8c-2.1-1.5-2.9,1.1-7.3,1.1
		l-0.2-0.7C69.3,24.2,71.7,23.2,70.3,20.4z M75.7,25.6l0.3-0.3c2.1,1.5,2.9-1.1,7.3-1.1l0.2,0.7c-2.8,0-5.2,1-3.8,3.8L79.4,29
		c-2.9-1.5-4.1,1.4-4.1,4l-0.7-0.2C74.7,28.8,77.2,27.8,75.7,25.6z"/>
	<path class="st0" d="M83.3,22.9h0.3c1,0.7,2,1.2,2.9,1.5v0.3c-1,0.3-1.9,0.8-2.9,1.5h-0.3V22.9z M90.9,24.6v-0.2
		c-2.7-0.4-6.6-1-6.6-3.1c0-3.1,5.9-3.2,7.1-5.1H92c-0.8,3.2,0.4,4.8,1.6,3l0.6,0.4c-1.2,1.8-1,3.2,5.8,4.6v0.7
		c-6.7,1.4-6.9,2.8-5.8,4.6l-0.6,0.4c-1.2-1.9-3-0.4-1.6,3h-0.7c-1.9-2.3-7-2-7-5.1C84.3,25.7,88.2,25,90.9,24.6z M96.9,17.1h0.6
		c0.1,1,0.9,1.7,1.8,1.8v0.6c-0.8,0.1-1.6,0.8-1.8,1.8h-0.6c-0.2-1-0.9-1.7-1.8-1.8v-0.6C96,18.8,96.7,18,96.9,17.1z M95.1,29.7
		c0.8-0.1,1.6-0.8,1.8-1.8h0.6c0.1,1,0.9,1.7,1.8,1.8v0.6c-0.8,0.1-1.6,0.8-1.8,1.8h-0.6c-0.2-1-0.9-1.7-1.8-1.8V29.7z"/>
	<path class="st0" d="M0,40.9c6.7-1.4,6.9-2.8,5.8-4.6l0.6-0.4c1.2,1.9,3,0.4,1.6-3h0.7c1.9,2.3,7,2,7,5.1c0,2.1-3.9,2.7-6.6,3.1
		v0.2c2.7,0.4,6.6,1,6.6,3.1c0,3.1-5.9,3.2-7.1,5.1H8c0.8-3.2-0.4-4.8-1.6-3l-0.6-0.4c1.2-1.8,1-3.2-5.8-4.6V40.9z M0.7,35.5
		c0.8-0.1,1.6-0.8,1.8-1.8h0.6c0.2,1,0.9,1.7,1.8,1.8V36c-0.9,0.1-1.6,0.8-1.8,1.8H2.5c-0.1-1-0.9-1.7-1.8-1.8V35.5z M3.1,48.7H2.5
		c-0.1-1-0.9-1.7-1.8-1.8v-0.6c0.8-0.1,1.6-0.8,1.8-1.8h0.6c0.2,0.9,0.9,1.7,1.8,1.8v0.6C4,47,3.3,47.7,3.1,48.7z M13.4,41
		c1-0.3,1.9-0.8,2.9-1.5h0.4v3.4h-0.4c-1-0.7-1.9-1.2-2.9-1.5V41z"/>
	<path class="st0" d="M16.7,39.5H17c1,0.7,1.9,1.2,2.9,1.5v0.3c-1,0.3-1.9,0.8-2.9,1.5h-0.4V39.5z M24.2,41.3v-0.2
		c-2.7-0.4-6.6-1-6.6-3.1c0-3.1,5.9-3.2,7.1-5.1h0.7c-0.8,3.2,0.4,4.8,1.6,3l0.6,0.4c-1.2,1.8-1,3.2,5.8,4.6v0.7
		c-6.7,1.4-6.9,2.8-5.8,4.6l-0.6,0.4c-1.2-1.9-3-0.4-1.6,3h-0.7c-1.9-2.3-7-2-7-5.1C17.6,42.3,21.5,41.7,24.2,41.3z M30.2,33.7h0.6
		c0.1,1,0.9,1.7,1.8,1.8v0.6c-0.8,0.1-1.6,0.8-1.8,1.8h-0.6c-0.2-1-0.9-1.7-1.8-1.8v-0.6C29.3,35.4,30.1,34.7,30.2,33.7z M28.4,46.4
		c0.9-0.1,1.6-0.8,1.8-1.8h0.6c0.1,1,0.9,1.7,1.8,1.8v0.6c-0.8,0.1-1.6,0.8-1.8,1.8h-0.6c-0.2-1-0.9-1.7-1.8-1.8V46.4z"/>
	<path class="st0" d="M66.7,40.9c6.7-1.4,6.9-2.8,5.8-4.6l0.6-0.4c1.2,1.9,3,0.4,1.6-3h0.7c1.9,2.3,7,2,7,5.1c0,2.1-3.9,2.7-6.6,3.1
		v0.2c2.7,0.4,6.6,1,6.6,3.1c0,3.1-5.9,3.2-7.1,5.1h-0.7c0.8-3.2-0.4-4.8-1.6-3l-0.6-0.4c1.2-1.8,1-3.2-5.8-4.6V40.9z M67.4,35.5
		c0.8-0.1,1.6-0.8,1.7-1.8h0.7c0.1,1,0.9,1.7,1.8,1.8V36c-0.8,0.1-1.6,0.8-1.8,1.8h-0.7c-0.1-1-0.9-1.7-1.7-1.8V35.5z M69.8,48.7
		h-0.7c-0.1-1-0.9-1.7-1.7-1.8v-0.6c0.8-0.1,1.6-0.8,1.7-1.8h0.7c0.1,0.9,0.9,1.7,1.8,1.8v0.6C70.7,47,69.9,47.7,69.8,48.7z M80,41
		c1-0.3,2-0.8,2.9-1.5h0.3v3.4H83c-1-0.7-1.9-1.2-2.9-1.5V41z"/>
	<path class="st0" d="M83.3,39.5h0.3c1,0.7,2,1.2,2.9,1.5v0.3c-1,0.3-1.9,0.8-2.9,1.5h-0.3V39.5z M90.9,41.3v-0.2
		c-2.7-0.4-6.6-1-6.6-3.1c0-3.1,5.9-3.2,7.1-5.1H92c-0.8,3.2,0.4,4.8,1.6,3l0.6,0.4c-1.2,1.8-1,3.2,5.8,4.6v0.7
		c-6.7,1.4-6.9,2.8-5.8,4.6l-0.6,0.4c-1.2-1.9-3-0.4-1.6,3h-0.7c-1.9-2.3-7-2-7-5.1C84.3,42.3,88.2,41.7,90.9,41.3z M96.9,33.7h0.6
		c0.1,1,0.9,1.7,1.8,1.8v0.6c-0.8,0.1-1.6,0.8-1.8,1.8h-0.6c-0.2-1-0.9-1.7-1.8-1.8v-0.6C96,35.4,96.7,34.7,96.9,33.7z M95.1,46.4
		c0.8-0.1,1.6-0.8,1.8-1.8h0.6c0.1,1,0.9,1.7,1.8,1.8v0.6c-0.8,0.1-1.6,0.8-1.8,1.8h-0.6c-0.2-1-0.9-1.7-1.8-1.8V46.4z"/>
	<path class="st0" d="M0,57.6c6.7-1.4,6.9-2.8,5.8-4.6l0.6-0.4c1.2,1.9,3,0.4,1.6-3h0.7c1.9,2.3,7,2,7,5.1c0,2.1-3.9,2.7-6.6,3.1V58
		c2.7,0.4,6.6,1,6.6,3.1c0,3.1-5.9,3.2-7.1,5.1H8c0.8-3.2-0.4-4.8-1.6-3l-0.6-0.4c1.2-1.8,1-3.2-5.8-4.6V57.6z M0.7,52.1
		c0.8-0.1,1.6-0.8,1.8-1.8h0.6C3.3,51.3,4,52,4.9,52.1v0.6c-0.9,0.1-1.6,0.8-1.8,1.8H2.5c-0.1-1-0.9-1.7-1.8-1.8V52.1z M3.1,65.3
		H2.5c-0.1-1-0.9-1.7-1.8-1.8V63c0.8-0.1,1.6-0.9,1.8-1.8h0.6C3.3,62.1,4,62.8,4.9,63v0.6C4,63.7,3.3,64.4,3.1,65.3z M13.4,57.7
		c1-0.3,1.9-0.8,2.9-1.5h0.4v3.4h-0.4c-1-0.7-1.9-1.2-2.9-1.5V57.7z"/>
	<path class="st0" d="M16.7,56.2H17c1,0.7,1.9,1.2,2.9,1.5V58c-1,0.3-1.9,0.8-2.9,1.5h-0.4V56.2z M24.2,58v-0.2
		c-2.7-0.4-6.6-1-6.6-3.1c0-3.1,5.9-3.2,7.1-5.1h0.7c-0.8,3.2,0.4,4.8,1.6,3l0.6,0.4c-1.2,1.8-1,3.2,5.8,4.6v0.7
		c-6.7,1.4-6.9,2.8-5.8,4.6l-0.6,0.4c-1.2-1.9-3-0.4-1.6,3h-0.7c-1.9-2.3-7-2-7-5.1C17.6,59,21.5,58.4,24.2,58z M30.2,50.4h0.6
		c0.1,1,0.9,1.7,1.8,1.8v0.6c-0.8,0.1-1.6,0.8-1.8,1.8h-0.6c-0.2-1-0.9-1.7-1.8-1.8v-0.6C29.3,52.1,30.1,51.4,30.2,50.4z M28.4,63
		c0.9-0.1,1.6-0.8,1.8-1.8h0.6c0.1,1,0.9,1.7,1.8,1.8v0.6c-0.8,0.1-1.6,0.8-1.8,1.8h-0.6c-0.2-1-0.9-1.7-1.8-1.8V63z"/>
	<path class="st0" d="M66.7,57.6c6.7-1.4,6.9-2.8,5.8-4.6l0.6-0.4c1.2,1.9,3,0.4,1.6-3h0.7c1.9,2.3,7,2,7,5.1c0,2.1-3.9,2.7-6.6,3.1
		V58c2.7,0.4,6.6,1,6.6,3.1c0,3.1-5.9,3.2-7.1,5.1h-0.7c0.8-3.2-0.4-4.8-1.6-3l-0.6-0.4c1.2-1.8,1-3.2-5.8-4.6V57.6z M67.4,52.1
		c0.8-0.1,1.6-0.8,1.7-1.8h0.7c0.1,0.9,0.9,1.7,1.8,1.8v0.6c-0.8,0.1-1.6,0.8-1.8,1.8h-0.7c-0.1-1-0.9-1.7-1.7-1.8V52.1z M69.8,65.3
		h-0.7c-0.1-1-0.9-1.7-1.7-1.8V63c0.8-0.1,1.6-0.9,1.7-1.8h0.7c0.1,0.9,0.9,1.7,1.8,1.8v0.6C70.7,63.7,69.9,64.4,69.8,65.3z
		 M80,57.7c1-0.3,2-0.8,2.9-1.5h0.3v3.4H83C82,58.9,81,58.3,80,58V57.7z"/>
	<path class="st0" d="M83.3,56.2h0.3c1,0.7,2,1.2,2.9,1.5V58c-1,0.3-1.9,0.8-2.9,1.5h-0.3V56.2z M90.9,58v-0.2
		c-2.7-0.4-6.6-1-6.6-3.1c0-3.1,5.9-3.2,7.1-5.1H92c-0.8,3.2,0.4,4.8,1.6,3l0.6,0.4c-1.2,1.8-1,3.2,5.8,4.6v0.7
		c-6.7,1.4-6.9,2.8-5.8,4.6l-0.6,0.4c-1.2-1.9-3-0.4-1.6,3h-0.7c-1.9-2.3-7-2-7-5.1C84.3,59,88.2,58.4,90.9,58z M96.9,50.4h0.6
		c0.1,1,0.9,1.7,1.8,1.8v0.6c-0.8,0.1-1.6,0.8-1.8,1.8h-0.6c-0.2-1-0.9-1.7-1.8-1.8v-0.6C96,52.1,96.7,51.4,96.9,50.4z M95.1,63
		c0.8-0.1,1.6-0.8,1.8-1.8h0.6c0.1,1,0.9,1.7,1.8,1.8v0.6c-0.8,0.1-1.6,0.8-1.8,1.8h-0.6c-0.2-1-0.9-1.7-1.8-1.8V63z"/>
	<path class="st0" d="M0,74.2c6.7-1.4,6.9-2.8,5.8-4.6l0.6-0.4c1.2,1.9,3,0.4,1.6-3h0.7c1.9,2.3,7,2,7,5.1c0,2.1-3.9,2.7-6.6,3.1
		v0.2c2.7,0.4,6.6,1,6.6,3.1c0,3.1-5.9,3.2-7.1,5.1H8c0.8-3.2-0.4-4.8-1.6-3l-0.6-0.4c1.2-1.8,1-3.2-5.8-4.6V74.2z M0.7,68.8
		C1.5,68.7,2.3,68,2.5,67h0.6c0.2,1,0.9,1.7,1.8,1.8v0.6c-0.9,0.1-1.6,0.8-1.8,1.8H2.5c-0.1-1-0.9-1.7-1.8-1.8V68.8z M3.1,82H2.5
		c-0.1-1-0.9-1.7-1.8-1.8v-0.6c0.8-0.1,1.6-0.8,1.8-1.8h0.6c0.2,0.9,0.9,1.7,1.8,1.8v0.6C4,80.3,3.3,81,3.1,82z M13.4,74.4
		c1-0.3,1.9-0.8,2.9-1.5h0.4v3.4h-0.4c-1-0.7-1.9-1.2-2.9-1.5V74.4z"/>
	<path class="st0" d="M20.3,70.4l0.3-0.3c2.9,1.5,4.1-1.4,4.1-4l0.7,0.2c0,4.3-2.5,5.1-1,7.3L24,73.8c-2.1-1.5-2.9,1.1-7.3,1.1
		l-0.2-0.7C19.3,74.2,21.7,73.2,20.3,70.4z M25.7,75.6l0.3-0.3c2.1,1.5,2.9-1.1,7.3-1.1l0.2,0.7c-2.8,0-5.2,1-3.8,3.8L29.4,79
		c-2.9-1.5-4.1,1.4-4.1,4l-0.7-0.2C24.7,78.8,27.2,77.8,25.7,75.6z"/>
	<path class="st0" d="M33.3,74.2c3.2,0.8,4.8-0.4,3-1.6l0.4-0.6c1.8,1.2,3.2,1,4.6-5.8H42c1.4,6.7,2.8,6.9,4.6,5.8l0.4,0.6
		c-1.9,1.2-0.4,3,3,1.6v0.7c-2.3,1.9-2,7-5.1,7c-2.1,0-2.7-3.9-3.1-6.6h-0.2c-0.4,2.7-1,6.6-3.1,6.6c-3.1,0-3.2-5.9-5.1-7.1V74.2z
		 M34.2,69.3v-0.7c1-0.1,1.7-0.9,1.8-1.7h0.6c0.1,0.8,0.9,1.6,1.8,1.7v0.7c-0.9,0.1-1.7,0.9-1.8,1.8H36
		C35.9,70.2,35.2,69.5,34.2,69.3z M40,82.5c0.7-1,1.2-1.9,1.5-2.9h0.3c0.3,1,0.8,2,1.5,2.9v0.4H40V82.5z M45,68.7
		c1-0.1,1.7-0.9,1.8-1.7h0.6c0.1,0.8,0.8,1.6,1.8,1.7v0.7c-0.9,0.1-1.7,0.9-1.8,1.8h-0.6c-0.1-0.8-0.8-1.6-1.8-1.8V68.7z"/>
	<path class="st0" d="M50,74.2c3.2,0.8,4.8-0.4,3-1.6l0.4-0.6c1.8,1.2,3.2,1,4.6-5.8h0.6c1.4,6.7,2.8,6.9,4.6,5.8l0.4,0.6
		c-1.9,1.2-0.4,3,3,1.6v0.7c-2.3,1.9-2,7-5.1,7c-2.1,0-2.7-3.9-3.1-6.6h-0.2c-0.4,2.7-1,6.6-3.1,6.6c-3.1,0-3.2-5.9-5.1-7.1V74.2z
		 M50.9,69.3v-0.7c1-0.1,1.7-0.9,1.8-1.7h0.6c0.1,0.8,0.8,1.6,1.8,1.7v0.7c-0.9,0.1-1.7,0.9-1.8,1.8h-0.6
		C52.5,70.2,51.8,69.5,50.9,69.3z M56.6,82.5c0.7-1,1.2-1.9,1.5-2.9h0.3c0.3,1,0.8,2,1.5,2.9v0.4h-3.4V82.5z M61.7,68.7
		c1-0.1,1.7-0.9,1.8-1.7h0.6c0.1,0.8,0.8,1.6,1.8,1.7v0.7c-1,0.1-1.7,0.9-1.8,1.8h-0.6c-0.1-0.8-0.8-1.6-1.8-1.8V68.7z"/>
	<path class="st0" d="M66.7,74.2c4.3,0,5.1,2.5,7.3,1l0.3,0.3c-1.5,2.1,1.1,2.9,1.1,7.3L74.7,83c0-2.8-1-5.2-3.8-3.8L70.5,79
		c1.5-2.9-1.4-4.1-4-4.1L66.7,74.2z M76,73.9l-0.3-0.3c1.5-2.1-1.1-2.9-1.1-7.3l0.7-0.2c0,2.8,1,5.2,3.8,3.8l0.3,0.3
		c-1.5,2.9,1.4,4.1,4,4.1l-0.2,0.7C79.2,74.9,78.2,72.3,76,73.9z"/>
	<path class="st0" d="M83.3,72.9h0.3c1,0.7,2,1.2,2.9,1.5v0.3c-1,0.3-1.9,0.8-2.9,1.5h-0.3V72.9z M90.9,74.6v-0.2
		c-2.7-0.4-6.6-1-6.6-3.1c0-3.1,5.9-3.2,7.1-5.1H92c-0.8,3.2,0.4,4.8,1.6,3l0.6,0.4c-1.2,1.8-1,3.2,5.8,4.6v0.7
		c-6.7,1.4-6.9,2.8-5.8,4.6l-0.6,0.4c-1.2-1.9-3-0.4-1.6,3h-0.7c-1.9-2.3-7-2-7-5.1C84.3,75.7,88.2,75,90.9,74.6z M96.9,67.1h0.6
		c0.1,1,0.9,1.7,1.8,1.8v0.6c-0.8,0.1-1.6,0.8-1.8,1.8h-0.6c-0.2-1-0.9-1.7-1.8-1.8v-0.6C96,68.8,96.7,68,96.9,67.1z M95.1,79.7
		c0.8-0.1,1.6-0.8,1.8-1.8h0.6c0.1,1,0.9,1.7,1.8,1.8v0.6c-0.8,0.1-1.6,0.8-1.8,1.8h-0.6c-0.2-1-0.9-1.7-1.8-1.8V79.7z"/>
	<path class="st0" d="M1.3,90.8L1.4,90c2.7,0.1,3.8-3,0-3.8l0.2-0.8c3,0.1,7.2-3.8,8.8-1.1c1.1,1.9-1.1,5.1-2.4,7l0.2,0.2
		c1.9-1.2,5.9-3.6,7-2.4c2,2.2-1.1,5.4-1.1,8.8l-0.8,0.2c-0.8-3.9-3.9-2.8-3.8,0l-0.8,0.1c-0.2-2.4-1.6-3-8,0.9l-0.4-0.4
		C4.3,92.3,3.7,91,1.3,90.8z M15.5,87.5l-0.3,0.3c-1.4,0-3,0.4-4.5,1.4l-0.3-0.3c0.9-1.4,1.4-2.9,1.5-4.4l0.4-0.3
		c1.3,0.2,2.5,0,3.3-0.4l0.2,0.3C15.5,84.8,15.4,86.1,15.5,87.5z"/>
	<path class="st0" d="M16.7,90.9c2.3-1.9,2-7,5.1-7c2.1,0,2.7,3.9,3.1,6.6h0.2c0.4-2.8,1-6.6,3.1-6.6c3.1,0,3.2,5.9,5.1,7.1v0.7
		c-3.2-0.8-4.8,0.4-3,1.6l-0.4,0.6c-1.8-1.2-3.2-1-4.6,5.8h-0.6c-1.4-6.7-2.8-6.9-4.6-5.8l-0.4-0.6c1.9-1.2,0.4-3-3-1.6V90.9z
		 M17.5,96.4c0.9-0.2,1.7-0.9,1.8-1.8h0.6c0.1,0.9,0.8,1.6,1.8,1.8v0.6c-1,0.1-1.7,0.9-1.8,1.8h-0.6c-0.1-0.8-0.9-1.6-1.8-1.8V96.4z
		 M23.3,82.9h3.4v0.3c-0.7,1-1.2,2-1.5,2.9h-0.3c-0.3-1-0.8-1.9-1.5-2.9V82.9z M32.5,96.4v0.6c-1,0.1-1.7,0.9-1.8,1.8h-0.6
		c-0.1-0.8-0.9-1.6-1.8-1.8v-0.6c0.9-0.2,1.7-0.9,1.8-1.8h0.6C30.8,95.5,31.5,96.3,32.5,96.4z"/>
	<path class="st0" d="M33.3,90.9c2.3-1.9,2-7,5.1-7c2.1,0,2.7,3.9,3.1,6.6h0.2c0.4-2.8,1-6.6,3.1-6.6c3.1,0,3.2,5.9,5.1,7.1v0.7
		c-3.2-0.8-4.8,0.4-3,1.6l-0.4,0.6c-1.8-1.2-3.2-1-4.6,5.8h-0.6c-1.4-6.7-2.8-6.9-4.6-5.8l-0.4-0.6c1.9-1.2,0.4-3-3-1.6V90.9z
		 M34.1,96.4c0.9-0.2,1.7-0.9,1.8-1.8h0.6c0.1,0.9,0.8,1.6,1.8,1.8v0.6c-1,0.1-1.7,0.9-1.8,1.8h-0.6c-0.1-0.8-0.9-1.6-1.8-1.8V96.4z
		 M40,82.9h3.4v0.3c-0.7,1-1.2,2-1.5,2.9h-0.3c-0.3-1-0.8-1.9-1.5-2.9V82.9z M49.1,96.4v0.6c-1,0.1-1.7,0.9-1.8,1.8h-0.6
		c-0.1-0.8-0.9-1.6-1.8-1.8v-0.6c0.9-0.2,1.7-0.9,1.8-1.8h0.6C47.4,95.5,48.2,96.3,49.1,96.4z"/>
	<path class="st0" d="M50,90.9c2.3-1.9,2-7,5.1-7c2.1,0,2.7,3.9,3.1,6.6h0.2c0.4-2.8,1-6.6,3.1-6.6c3.1,0,3.2,5.9,5.1,7.1v0.7
		c-3.2-0.8-4.8,0.4-3,1.6l-0.4,0.6c-1.8-1.2-3.2-1-4.6,5.8H58c-1.4-6.7-2.8-6.9-4.6-5.8L53,93.1c1.9-1.2,0.4-3-3-1.6V90.9z
		 M50.8,96.4c1-0.2,1.7-0.9,1.8-1.8h0.6c0.1,0.9,0.8,1.6,1.8,1.8v0.6c-1,0.1-1.7,0.9-1.8,1.8h-0.6c-0.1-0.8-0.8-1.6-1.8-1.8V96.4z
		 M56.6,82.9H60v0.3c-0.7,1-1.2,2-1.5,2.9h-0.3c-0.3-1-0.8-1.9-1.5-2.9V82.9z M65.8,96.4v0.6c-1,0.1-1.7,0.9-1.8,1.8h-0.6
		c-0.1-0.8-0.8-1.6-1.8-1.8v-0.6c1-0.2,1.7-0.9,1.8-1.8H64C64.1,95.5,64.8,96.3,65.8,96.4z"/>
	<path class="st0" d="M66.7,90.9c2.3-1.9,2-7,5.1-7c2.1,0,2.7,3.9,3.1,6.6h0.2c0.4-2.8,1-6.6,3.1-6.6c3.1,0,3.2,5.9,5.1,7.1v0.7
		c-3.2-0.8-4.8,0.4-3,1.6l-0.4,0.6c-1.8-1.2-3.2-1-4.6,5.8h-0.6c-1.4-6.7-2.8-6.9-4.6-5.8l-0.4-0.6c1.9-1.2,0.4-3-3-1.6V90.9z
		 M67.5,96.4c1-0.2,1.7-0.9,1.8-1.8h0.6c0.1,0.9,0.8,1.6,1.8,1.8v0.6c-1,0.1-1.7,0.9-1.8,1.8h-0.6c-0.1-0.8-0.8-1.6-1.8-1.8V96.4z
		 M73.3,82.9h3.4v0.3c-0.7,1-1.2,2-1.5,2.9h-0.3c-0.3-1-0.8-1.9-1.5-2.9V82.9z M82.5,96.4v0.6c-1,0.1-1.7,0.9-1.8,1.8h-0.6
		c-0.1-0.8-0.8-1.6-1.8-1.8v-0.6c0.9-0.2,1.7-0.9,1.8-1.8h0.6C80.8,95.5,81.5,96.3,82.5,96.4z"/>
	<path class="st0" d="M91.8,91.6l0.2-0.2c-1.2-1.9-3.6-5.9-2.4-7c2.2-2,5.4,1.2,8.8,1.2l0.2,0.7c-3.9,0.8-2.8,3.9,0,3.8l0.1,0.8
		c-2.4,0.2-3,1.6,0.9,8l-0.4,0.4c-6.4-4-7.8-3.4-8-1l-0.8-0.1c0.1-2.7-3-3.8-3.8,0L85.9,98c0.1-3-3.8-7.2-1.2-8.8
		C86.6,88.1,89.9,90.3,91.8,91.6z M87.9,84l0.3,0.3c0,1.4,0.4,3,1.4,4.5l-0.3,0.3c-1.4-0.9-2.9-1.5-4.4-1.5l-0.3-0.4
		c0.2-1.3,0-2.5-0.4-3.3l0.3-0.2C85.3,84,86.6,84.2,87.9,84z"/>
</g>
</svg>
