<?xml version="1.0" encoding="utf-8"?>
<!-- Generator: Adobe Illustrator 25.2.3, SVG Export Plug-In . SVG Version: 6.00 Build 0)  -->
<svg version="1.1" id="Layer_1" xmlns="http://www.w3.org/2000/svg" xmlns:xlink="http://www.w3.org/1999/xlink" x="0px" y="0px"
	 viewBox="0 0 100 100" style="enable-background:new 0 0 100 100;" xml:space="preserve">
<style type="text/css">
	.st0{fill:#A42015;}
</style>
<g>
	<path class="st0" d="M1.5,0.7c12.9,8,15.6,6.8,16,1.9l1.6,0.2c-0.2,5.5,6,7.7,7.5-0.1l1.5,0.3c-0.1,6,7.7,14.4,2.3,17.6
		c-3.8,2.2-10.3-2.2-14.1-4.7l-0.5,0.5c2.5,3.8,7.3,11.8,4.7,14.1C16.2,34.5,9.7,28.3,3,28.3l-0.3-1.5c7.8-1.5,5.5-7.8,0.1-7.5
		l-0.2-1.6c4.9-0.4,6-3.1-1.9-16.1L1.5,0.7z M24.1,31l-0.6-0.7c-0.1-2.9-0.8-6-2.8-9l0.6-0.6c2.7,1.8,5.7,2.9,8.8,3l0.7,0.8
		c-0.3,2.6,0.1,5,0.8,6.7l-0.5,0.5C29.4,31.1,26.9,30.8,24.1,31z"/>
	<path class="st0" d="M33.3,16c6.5,1.6,9.7-0.7,6-3.2l0.9-1.3c3.6,2.3,6.3,1.9,9.2-11.5h1.3c2.8,13.5,5.6,13.9,9.2,11.5l0.9,1.3
		c-3.7,2.5-0.8,6.1,6,3.2v1.4c-4.5,3.8-4.1,14.1-10.2,14.1c-4.2,0-5.5-7.8-6.3-13.3h-0.3c-0.8,5.5-2.1,13.3-6.3,13.3
		c-6.1,0-6.4-11.8-10.2-14.1V16z M35.1,6.3V5c1.9-0.3,3.4-1.8,3.6-3.5h1.1c0.3,1.7,1.7,3.2,3.6,3.5v1.3c-1.9,0.3-3.3,1.8-3.6,3.5
		h-1.1C38.4,8.1,37,6.6,35.1,6.3z M46.6,32.7c1.4-2,2.4-3.9,3-5.9h0.7c0.6,2,1.6,3.9,3,5.9v0.7h-6.7V32.7z M56.7,5
		c1.9-0.3,3.4-1.8,3.6-3.5h1.1c0.3,1.7,1.7,3.2,3.6,3.5v1.3c-1.9,0.3-3.3,1.8-3.6,3.5h-1.1c-0.2-1.7-1.7-3.2-3.6-3.5V5z"/>
	<path class="st0" d="M71.8,3.1l1.5-0.3c1.5,7.8,7.8,5.5,7.5,0.1l1.6-0.2c0.4,4.9,3.1,6,16.1-1.9l0.9,0.9c-8,12.9-6.8,15.6-1.9,16
		l-0.2,1.6c-5.5-0.2-7.7,6,0.1,7.5l-0.3,1.5c-6-0.1-14.4,7.7-17.6,2.3c-2.2-3.8,2.2-10.3,4.7-14.1l-0.5-0.5
		c-3.8,2.5-11.8,7.3-14.1,4.7C65.5,16.2,71.8,9.7,71.8,3.1z M69,24.2l0.7-0.6c2.9-0.1,6-0.8,9-2.8l0.6,0.6c-1.8,2.7-2.9,5.7-3,8.8
		l-0.8,0.7c-2.6-0.3-5,0.1-6.7,0.8l-0.5-0.5C69,29.5,69.3,26.9,69,24.2z"/>
	<path class="st0" d="M0,49.4c13.5-2.8,13.9-5.6,11.5-9.2l1.3-0.9c2.5,3.7,6.1,0.8,3.2-6h1.4c3.8,4.5,14.1,4.1,14.1,10.2
		c0,4.2-7.8,5.5-13.3,6.3v0.3c5.5,0.8,13.3,2.1,13.3,6.3c0,6.1-11.8,6.4-14.1,10.2H16c1.6-6.5-0.7-9.7-3.2-6l-1.3-0.9
		c2.3-3.6,1.9-6.3-11.5-9.2V49.4z M1.4,38.6c1.7-0.3,3.2-1.7,3.5-3.6h1.3c0.3,1.9,1.8,3.3,3.5,3.6v1.1c-1.7,0.2-3.2,1.7-3.5,3.6H4.9
		c-0.3-1.9-1.8-3.4-3.5-3.6V38.6z M6.2,65H4.9c-0.3-1.9-1.8-3.4-3.5-3.6v-1.1c1.7-0.3,3.2-1.7,3.5-3.6h1.3c0.3,1.9,1.8,3.3,3.5,3.6
		v1.1C8.1,61.6,6.5,63,6.2,65z M26.8,49.7c2-0.6,3.9-1.6,5.9-3h0.7v6.7h-0.7c-2-1.4-3.9-2.4-5.9-3V49.7z"/>
	<path class="st0" d="M66.7,46.7h0.7c2,1.4,3.9,2.4,5.9,3v0.7c-2,0.6-3.9,1.6-5.9,3h-0.7V46.7z M81.8,50.2v-0.3
		c-5.5-0.8-13.3-2.1-13.3-6.3c0-6.1,11.8-6.4,14.1-10.2H84c-1.6,6.5,0.7,9.7,3.2,6l1.3,0.9c-2.3,3.6-1.9,6.3,11.5,9.2v1.3
		c-13.5,2.8-13.9,5.6-11.5,9.2l-1.3,0.9c-2.5-3.7-6.1-0.8-3.2,6h-1.4c-3.8-4.5-14.1-4.1-14.1-10.2C68.5,52.3,76.3,51,81.8,50.2z
		 M93.8,35.1h1.3c0.3,1.9,1.8,3.4,3.5,3.6v1.1c-1.7,0.3-3.2,1.7-3.5,3.6h-1.3c-0.3-1.9-1.8-3.3-3.5-3.6v-1.1
		C91.9,38.5,93.5,37,93.8,35.1z M90.2,60.4c1.7-0.2,3.2-1.7,3.5-3.6h1.3c0.3,1.9,1.8,3.4,3.5,3.6v1.1c-1.7,0.3-3.2,1.7-3.5,3.6h-1.3
		c-0.3-1.9-1.8-3.3-3.5-3.6V60.4z"/>
	<path class="st0" d="M2.6,82.5l0.2-1.6c5.5,0.2,7.7-6-0.1-7.5l0.3-1.5c6,0.1,14.4-7.7,17.6-2.3c2.2,3.8-2.2,10.3-4.7,14.1l0.5,0.5
		c3.8-2.5,11.8-7.3,14.1-4.7c3.9,4.4-2.3,10.9-2.3,17.6l-1.5,0.3c-1.5-7.8-7.8-5.5-7.5-0.1l-1.6,0.2c-0.4-4.9-3.1-6-16.1,1.9
		l-0.9-0.9C8.6,85.6,7.5,82.9,2.6,82.5z M31,75.9l-0.7,0.6c-2.9,0.1-6,0.8-9,2.8l-0.6-0.6c1.8-2.7,2.9-5.7,3-8.8l0.8-0.7
		c2.6,0.3,5-0.1,6.7-0.8l0.5,0.5C31,70.6,30.7,73.2,31,75.9z"/>
	<path class="st0" d="M33.3,82.7c4.5-3.8,4.1-14.1,10.2-14.1c4.2,0,5.5,7.8,6.3,13.3h0.3c0.8-5.5,2.1-13.3,6.3-13.3
		c6.1,0,6.4,11.8,10.2,14.1V84c-6.5-1.6-9.7,0.7-6,3.2l-0.9,1.3c-3.6-2.3-6.3-1.9-9.2,11.5h-1.3c-2.8-13.5-5.6-13.9-9.2-11.5
		l-0.9-1.3c3.7-2.5,0.8-6.1-6-3.2V82.7z M34.9,93.8c1.9-0.3,3.3-1.8,3.6-3.5h1.1c0.2,1.7,1.7,3.2,3.6,3.5v1.3
		c-1.9,0.3-3.4,1.8-3.6,3.5h-1.1c-0.3-1.7-1.7-3.2-3.6-3.5V93.8z M46.6,66.7h6.7v0.7c-1.4,2-2.4,3.9-3,5.9h-0.7
		c-0.6-2-1.6-3.9-3-5.9V66.7z M64.9,93.8v1.3c-1.9,0.3-3.4,1.8-3.6,3.5h-1.1c-0.3-1.7-1.7-3.2-3.6-3.5v-1.3c1.9-0.3,3.3-1.8,3.6-3.5
		h1.1C61.6,92,63,93.5,64.9,93.8z"/>
	<path class="st0" d="M83.6,84.1l0.5-0.5c-2.5-3.8-7.3-11.8-4.7-14.1c4.4-3.9,10.9,2.3,17.6,2.3l0.3,1.5c-7.8,1.5-5.5,7.8-0.1,7.5
		l0.2,1.6c-4.9,0.4-6,3.1,1.9,16.1l-0.9,0.9c-12.9-8-15.6-6.8-16-1.9l-1.6-0.2c0.2-5.5-6-7.7-7.5,0.1l-1.5-0.3
		c0.1-6-7.7-14.4-2.3-17.6C73.3,77.2,79.8,81.6,83.6,84.1z M75.9,69l0.6,0.7c0.1,2.9,0.8,6,2.8,9l-0.6,0.6c-2.7-1.8-5.7-2.9-8.8-3
		l-0.7-0.8c0.3-2.6-0.1-5-0.8-6.7l0.5-0.5C70.6,69,73.1,69.3,75.9,69z"/>
</g>
</svg>
