<?xml version="1.0" encoding="utf-8"?>
<!-- Generator: Adobe Illustrator 25.2.3, SVG Export Plug-In . SVG Version: 6.00 Build 0)  -->
<svg version="1.1" id="Layer_1" xmlns="http://www.w3.org/2000/svg" xmlns:xlink="http://www.w3.org/1999/xlink" x="0px" y="0px"
	 viewBox="0 0 66.7 66.7" style="enable-background:new 0 0 66.7 66.7;" xml:space="preserve">
<g>
	<path d="M33.3-0.4l0.3,1.3c-8.6,0-15.5,3.9-15.5,9.7c0,2.4,1.6,3.9,3.3,3.9c2,0,4-1.4,4.5-5.2h1.4c-0.3,7.2-2.9,17.5-11.8,17.5
		c-4.3,0-8.3-4.3-8.7-9.5H6.6c-1.9,2.2-5.5,6.9-5.5,16.1l-1.3-0.3C-0.2,14.5,14.6-0.4,33.3-0.4z M3.1,3.2l0.6-0.6
		c2.4,0.9,5.4,0.1,8.4-0.9l0.6,0.9c-3.8,1.8-7.6,5.6-9.5,9.6l-0.9-0.6C3.2,8.7,4.2,5.8,3.1,3.2z M23.5,26.9c2-0.6,3.1-1.9,3.7-3.6
		H28c0.6,1.7,1.7,3,3.7,3.6v1c-2,0.7-3.1,1.9-3.7,3.7h-0.8c-0.6-1.7-1.7-3-3.7-3.7V26.9z"/>
	<path d="M34-0.1c0,9.2,3.6,13.9,5.5,16.1h0.4c0.3-5.2,4.3-9.5,8.7-9.5c8.9,0,11.4,10.3,11.8,17.5h-1.4c-0.5-3.8-2.6-5.2-4.5-5.2
		c-1.7,0-3.3,1.5-3.3,3.9c0,5.8,6.9,9.7,15.5,9.7l-0.3,1.3c-18.7,0-33.6-15-33.6-33.6L34-0.1z M45.5,30.7L45,31.6
		c-3-1-5.9-1.8-8.4-0.9L36,30.1c1.1-2.6,0-5.4-0.9-8.4l0.9-0.6C38,25.1,41.7,28.9,45.5,30.7z M56.4,5.5c2-0.7,3.1-1.9,3.7-3.7h0.8
		c0.6,1.7,1.7,3,3.7,3.7v1c-2,0.6-3.1,1.9-3.7,3.6h-0.8c-0.6-1.7-1.7-3-3.7-3.6V5.5z"/>
	<path d="M0.4,32.5C19.1,32.5,34,47.4,34,66l-1.3,0.3c0-9.2-3.6-13.9-5.5-16.1h-0.4c-0.3,5.2-4.3,9.5-8.7,9.5
		c-8.9,0-11.4-10.3-11.8-17.5h1.4c0.5,3.8,2.6,5.2,4.5,5.2c1.7,0,3.3-1.5,3.3-3.9c0-5.8-6.9-9.7-15.5-9.7L0.4,32.5z M2.1,59.8
		c2-0.6,3.1-1.9,3.7-3.6h0.8c0.6,1.7,1.7,3,3.7,3.6v1c-2,0.7-3.1,1.9-3.7,3.7H5.8c-0.6-1.7-1.7-3-3.7-3.7V59.8z M21.1,35.5l0.6-0.9
		c3,1,5.9,1.8,8.4,0.9l0.6,0.6c-1.1,2.6,0,5.4,0.9,8.4l-0.9,0.6C28.7,41.1,24.9,37.3,21.1,35.5z"/>
	<path d="M48.5,55.7c0-2.4-1.6-3.9-3.3-3.9c-2,0-4,1.4-4.5,5.2h-1.4c0.3-7.2,2.9-17.5,11.8-17.5c4.3,0,8.3,4.3,8.7,9.5H60
		c1.9-2.2,5.5-6.9,5.5-16.1l1.3,0.3c0,18.6-14.9,33.6-33.6,33.6L33,65.3C41.6,65.3,48.5,61.4,48.5,55.7z M35,38.4
		c2-0.7,3.1-1.9,3.7-3.7h0.8c0.6,1.7,1.7,3,3.7,3.7v1c-2,0.6-3.1,1.9-3.7,3.6h-0.8c-0.6-1.7-1.7-3-3.7-3.6V38.4z M63.5,63l-0.6,0.6
		c-2.4-0.9-5.4-0.1-8.4,0.9L54,63.6c3.8-1.8,7.6-5.6,9.5-9.6l0.9,0.6C63.5,57.6,62.4,60.4,63.5,63z"/>
</g>
</svg>
