<?xml version="1.0" encoding="utf-8"?>
<!-- Generator: Adobe Illustrator 25.2.3, SVG Export Plug-In . SVG Version: 6.00 Build 0)  -->
<svg version="1.1" id="Layer_1" xmlns="http://www.w3.org/2000/svg" xmlns:xlink="http://www.w3.org/1999/xlink" x="0px" y="0px"
	 viewBox="0 0 66.7 66.7" style="enable-background:new 0 0 66.7 66.7;" xml:space="preserve">
<style type="text/css">
	.st0{fill:#CD8482;}
	.st1{fill:#A42015;}
</style>
<rect x="-4.4" y="-8.6" class="st0" width="98.3" height="92.1"/>
<g>
	<path class="st1" d="M33.3-0.4l0.3,1.3c-8.6,0-15.5,3.9-15.5,9.7c0,2.4,1.6,3.9,3.3,3.9c2,0,4-1.4,4.5-5.2h1.4
		c-0.3,7.2-2.9,17.5-11.8,17.5c-4.3,0-8.3-4.3-8.7-9.5H6.6c-1.9,2.2-5.5,6.9-5.5,16.1l-1.3-0.3C-0.2,14.5,14.6-0.4,33.3-0.4z
		 M3.1,3.2l0.6-0.6c2.4,0.9,5.4,0.1,8.4-0.9l0.6,0.9c-3.8,1.8-7.6,5.6-9.5,9.6l-0.9-0.6C3.2,8.7,4.2,5.8,3.1,3.2z M23.5,26.9
		c2-0.6,3.1-1.9,3.7-3.6H28c0.6,1.7,1.7,3,3.7,3.6v1c-2,0.7-3.1,1.9-3.7,3.7h-0.8c-0.6-1.7-1.7-3-3.7-3.7V26.9z"/>
	<path class="st1" d="M33.3-0.4c18.7,0,33.6,15,33.6,33.6l-1.3,0.3c0-9.2-3.6-13.9-5.5-16.1h-0.4c-0.3,5.2-4.3,9.5-8.7,9.5
		c-8.9,0-11.4-10.3-11.8-17.5h1.4c0.5,3.8,2.6,5.2,4.5,5.2c1.7,0,3.3-1.5,3.3-3.9c0-5.8-6.9-9.7-15.5-9.7L33.3-0.4z M35,26.9
		c2-0.6,3.1-1.9,3.7-3.6h0.8c0.6,1.7,1.7,3,3.7,3.6v1c-2,0.7-3.1,1.9-3.7,3.7h-0.8c-0.6-1.7-1.7-3-3.7-3.7V26.9z M54,2.6l0.6-0.9
		c3,1,5.9,1.8,8.4,0.9l0.6,0.6c-1.1,2.6,0,5.4,0.9,8.4l-0.9,0.6C61.6,8.2,57.8,4.4,54,2.6z"/>
	<path class="st1" d="M0.4,32.5c15.7,0,12.8,14.8,24.8,9.3l0.8,1c-3.4,2.9-4.8,6.9-5.1,10.2c-0.6,6.9,4.1,12.4,12.8,12.4l-0.3,1.3
		c-15.7,0-12.5-15.2-24.4-9.6l-0.8-1c3-2.6,4-6.3,4.3-9.6C13,39.6,9.1,33.8,0.1,33.8L0.4,32.5z M1.7,64.1c1.6-2.4,2.9-8.5,0.9-12.4
		l0.9-0.6c2.1,2.3,3,6.6,2.2,9.4l0.1,0.1c2.9-0.7,7.1,0.1,9.4,2.2l-0.6,0.9c-3.9-2-9.9-0.8-12.4,0.8L1.7,64.1z M19.1,35.2
		c3.9,2,9.9,0.8,12.4-0.8L32,35c-1.6,2.4-2.9,8.5-0.9,12.4l-0.9,0.6c-2.1-2.3-3-6.6-2.2-9.4L28,38.4c-2.9,0.7-7.1-0.1-9.4-2.2
		L19.1,35.2z"/>
	<path class="st1" d="M45.8,52.9c-0.3-3.2-1.7-7.2-5.1-10.2l0.8-1c12,5.6,9.1-9.3,24.8-9.3l0.3,1.3c-9,0-12.9,5.9-12.3,12.6
		c0.3,3.4,1.3,7.1,4.3,9.6l-0.8,1c-12-5.6-8.8,9.6-24.4,9.6L33,65.3C41.6,65.3,46.4,59.9,45.8,52.9z M35.2,34.4
		c2.4,1.6,8.5,2.9,12.4,0.8l0.6,0.9c-2.3,2.1-6.6,3-9.4,2.2l-0.1,0.1c0.7,2.9-0.1,7.1-2.2,9.4l-0.9-0.6c2-3.9,0.7-10-0.9-12.4
		L35.2,34.4z M52,63.9L51.4,63c2.3-2.1,6.6-3,9.4-2.2l0.1-0.1c-0.7-2.9,0.1-7.1,2.2-9.4l0.9,0.6c-2,3.9-0.7,10,0.9,12.4l-0.6,0.6
		C61.9,63.1,55.9,61.8,52,63.9z"/>
</g>
</svg>
